<?xml version="1.0" encoding="utf-8"?>
<!-- Generator: Adobe Illustrator 28.1.0, SVG Export Plug-In . SVG Version: 6.00 Build 0)  -->
<svg version="1.1" id="Layer_1" xmlns="http://www.w3.org/2000/svg" xmlns:xlink="http://www.w3.org/1999/xlink" x="0px" y="0px"
	 viewBox="0 0 341.54 116.01" style="enable-background:new 0 0 341.54 116.01;" xml:space="preserve">
<style type="text/css">
	.st0{fill-rule:evenodd;clip-rule:evenodd;fill:#14232F;}
</style>
<path class="st0" d="M170.46,77.76c4.9-10.32,16.05-18.48,24.04-18.48c1.13,0,2.2,0.11,3.2,0.32c0.68-0.81,1.59-1.55,2.74-2.15h0.01
	c2.77,2.98,7.64,4.99,14.33,4.99c4.73,0,9.37-0.78,14.86-2.22c1.02,0.37,2.09,0.78,3.12,1.18c1.12,0.43,2.19,0.84,3.09,1.16
	c-7.76,10.68-10.43,16.93-10.43,20.08c0,1.71,1.2,2.75,2.22,2.75c4.35,0,13.53-9.28,23.49-23.57H261
	c-6.84,9.8-10.03,17.77-10.03,21.96c0,2.23,1.3,3.62,3.15,3.62c7.92,0,23.09-17.67,28.77-27.35h-11.74l5.12-9.53h12.46
	c0,0,3.13-5.36,7.54-13.08h7.34l-6.5,13.08h12.84l-5.1,9.53h-12.44c-4.81,9.87-14.12,28.48,4.56,28.48c10.63,0,18.04-2.25,32.16-7.5
	c-0.28,1.3-0.78,2.97-1.25,4.58c-0.41,1.37-0.8,2.71-1.04,3.73c-10.71,6.39-25.94,12.17-37.87,12.17c-7.72,0-17.35-3.33-14.58-18.28
	c-12.34,14.04-20.14,17.08-26.4,17.08c-6.25,0-9.44-4.59-8.69-11.9c-6.64,7.28-13.79,11.88-20.58,11.88c-4.5,0-7.88-3.84-7.88-7.88
	c0-4.81,3.12-13.89,10.03-23.34c-5.06,1.47-9.46,2.14-13.8,2.22c-0.02,13.03-12.74,29.31-27.61,29.31
	c-6.35,0-11.27-4.69-11.48-12.07c-37.64,31.5-54.9-3.3-23.45-22.97c-4.99,0.18-11.53,0.71-19.31,1.86c0.69,1.84,1.12,4.06,1.12,6.21
	c0,17.75-28.69,30.36-61.44,30.36c-35.39,0-52.5-10.58-52.5-13.38c0-6.72,38.59-20.96,87.12-28.1c-4.13-3.26-10.13-5.77-16.24-8.33
	c-11.69-4.89-23.75-9.94-23.75-20.71c0-13.17,31.89-21.44,58.09-21.44c13.17,0,22.27,0.5,30.99,2.04l-3.18,7.92
	c-4.51-0.44-8.94-0.83-13.9-0.83c-23.94,0-49.58,6.99-49.58,14.55c0,4.43,7.32,7.66,16.01,11.5c7.64,3.38,16.35,7.23,22.08,12.77
	c11.6-1.12,23.5-1.77,35.38-1.77c6.24,0,11.51,0.18,16,1.38l-2.82,7.1c-1.06-1.18-2.67-1.83-5.09-1.83
	c-7.17,0-18.15,7.99-18.15,15.83c0,3.44,2.17,6.11,6.3,6.11C156.24,86.82,164.86,82.6,170.46,77.76 M104.81,70.85
	c-31.55,6.01-67.47,15.97-67.47,19.53c0,1.59,6.14,3.55,14.51,3.55c23.55,0,53.09-6.8,53.09-21.74
	C104.94,72,104.9,71.38,104.81,70.85 M196.21,64.96c0.33,1.82,1.45,3.57,3.47,4.77c-1.05,5.3-8.21,16.74-14.16,16.74
	c-1.84,0-3.66-1.39-3.66-3.78C181.85,76.33,191.16,65.51,196.21,64.96"/>
</svg>
